<svg width="798" height="128" viewBox="0 0 798 128" fill="none" xmlns="http://www.w3.org/2000/svg">
<path d="M54.5858 128L-2.44889e-06 128L36.0183 91.6215L7.34666e-06 50.5409L75.2181 50.5409L115.274 70.1062L54.5858 128Z" fill="white"/>
<path d="M85.9801 0H24.2988L74.7244 50.4255L36.0048 91.6214H92.7455L135.955 50.4255L85.9801 0Z" fill="#A7BCB2"/>
<path d="M161.109 112.805V15.0584H196.107C219.211 15.0584 233.838 24.4913 233.838 44.7241V45.271C233.838 60.0355 225.226 67.8279 213.742 71.2456L239.58 112.805H216.066L192.689 75.0734H183.119V112.805H161.109ZM183.119 60.0355H195.56C206.633 60.0355 212.238 55.3874 212.238 45.9545V45.4077C212.238 35.4279 206.223 32.0102 195.56 32.0102H183.119V60.0355Z" fill="#E5EBE8"/>
<path d="M275.998 114.309C254.671 114.309 238.403 100.091 238.403 77.8076V76.7139C238.403 54.2937 254.671 39.6659 276.135 39.6659C297.598 39.6659 313.73 54.0203 313.73 76.3038V77.3975C313.73 99.9544 297.461 114.309 275.998 114.309ZM276.135 99.2709C287.208 99.2709 293.633 91.0683 293.633 77.5342V76.5772C293.633 62.9064 287.208 54.7039 276.135 54.7039C265.198 54.7039 258.636 62.633 258.636 76.3038V77.3975C258.636 91.0683 264.925 99.2709 276.135 99.2709Z" fill="#E5EBE8"/>
<path d="M345.338 114.309C331.394 114.309 321.004 106.106 321.004 87.3772V41.3064H340.69V84.643C340.69 94.3494 344.655 98.9975 353.13 98.9975C361.47 98.9975 368.032 93.8025 368.032 83.276V41.3064H387.718V112.805H368.032V101.595C364.341 108.84 357.095 114.309 345.338 114.309Z" fill="#E5EBE8"/>
<path d="M425.901 114.172C410.863 114.172 402.797 106.516 402.797 91.6152V55.3874H393.638V41.3064H402.797V25.8583H422.483V41.3064H437.521V55.3874H422.483V89.838C422.483 95.5797 425.354 98.3139 430.412 98.3139C433.42 98.3139 435.607 97.9038 437.931 96.9468V112.258C435.197 113.215 431.233 114.172 425.901 114.172Z" fill="#E5EBE8"/>
<path d="M478.801 114.309C457.201 114.309 441.479 100.775 441.479 77.9443V76.8507C441.479 54.2937 457.474 39.6659 478.254 39.6659C496.71 39.6659 513.115 50.4659 513.115 76.0304V81.4988H461.576C462.122 93.3924 468.548 100.228 479.348 100.228C488.507 100.228 493.019 96.2633 494.249 90.2481H512.978C510.654 105.696 498.35 114.309 478.801 114.309ZM461.849 69.3317H493.839C493.155 58.5317 487.687 53.3368 478.254 53.3368C469.368 53.3368 463.353 59.2152 461.849 69.3317Z" fill="#E5EBE8"/>
<path d="M592.35 114.309C561.728 114.309 542.178 93.119 542.178 64.5469V63.4532C542.178 34.3343 563.505 13.6913 592.487 13.6913C621.879 13.6913 642.796 33.514 642.796 62.9064V64C642.796 93.119 622.836 114.309 592.35 114.309ZM592.76 96.6734C609.302 96.6734 619.692 83.9595 619.692 64.2735V63.1798C619.692 44.1773 609.576 31.19 592.487 31.19C575.535 31.19 565.282 43.6305 565.282 63.3165V64.4102C565.282 84.3696 576.765 96.6734 592.76 96.6734Z" fill="#E5EBE8"/>
<path d="M651.601 112.805V41.3064H671.423V52.6532C674.978 45.5444 682.77 39.6659 694.664 39.6659C708.745 39.6659 718.725 48.1418 718.725 67.2811V112.805H698.902V70.1519C698.902 60.4456 695.074 55.7975 686.325 55.7975C677.849 55.7975 671.423 60.9925 671.423 71.519V112.805H651.601Z" fill="#E5EBE8"/>
<path d="M763.187 114.309C741.587 114.309 725.865 100.775 725.865 77.9443V76.8507C725.865 54.2937 741.86 39.6659 762.64 39.6659C781.096 39.6659 797.501 50.4659 797.501 76.0304V81.4988H745.962C746.508 93.3924 752.934 100.228 763.734 100.228C772.893 100.228 777.405 96.2633 778.635 90.2481H797.364C795.04 105.696 782.736 114.309 763.187 114.309ZM746.235 69.3317H778.225C777.541 58.5317 772.073 53.3368 762.64 53.3368C753.754 53.3368 747.739 59.2152 746.235 69.3317Z" fill="#E5EBE8"/>
</svg>
